# xmcd
#
# Track frame offsets:
#	150
#	12025
#	25000
#	40075
#	54250
#	67900
#	79075
#	92100
#	104125
#	116525
#	127525
#	141625
#	153450
#	167725
#	179837
#	193850
#	206325
#	218100
#	229025
#	241500
#	253575
#	268525
#	280262
#	292050
#
# Disc length: 4039 seconds
#
# Revision: 1
# Processed by: cddbd v1.4PL0 Copyright (c) Steve Scherf et al.
# Submitted via: audiograbber 1.81.03
#
DISCID=520fc518
DTITLE=Gene Autry - The Last Round-Up
DYEAR=1999
DGENRE=Country
TTITLE0=Don't Fence Me In
TTITLE1=The Yellow Rose Of Texas
TTITLE2=The Last Round-Up
TTITLE3=Mexicali Rose
TTITLE4=I'll Go Riding DownThat Old Texas Trail
TTITLE5=There's A New Moon Over My Shoulder
TTITLE6=Ridin' Down The Canyon
TTITLE7=Same Old Fashioned Girl
TTITLE8=It Makes No Difference Now
TTITLE9=Red River Valley
TTITLE10=Amapola
TTITLE11=Blueberry Hill
TTITLE12=Take Me Back To My Boots And Saddle
TTITLE13=El Rancho Grande
TTITLE14=Maria Elena
TTITLE15=Deep In The Heart Of Texas
TTITLE16=The Call Of The Canyon
TTITLE17=I'm Thinking Tonight Of My Blue Eyes
TTITLE18=Ole Faithful
TTITLE19=(I've Got Spurs That) Jingle, Jangle, Jingle
TTITLE20=Tumbling Tumbleweeds
TTITLE21=(There's Nothing Like A) Good Old Fashioned Hoedown
TTITLE22=Back In The Saddle Again
TTITLE23=You Are My Sunshine
EXTD=
EXTT0=
EXTT1=
EXTT2=
EXTT3=
EXTT4=
EXTT5=
EXTT6=
EXTT7=
EXTT8=
EXTT9=
EXTT10=
EXTT11=
EXTT12=
EXTT13=
EXTT14=
EXTT15=
EXTT16=
EXTT17=
EXTT18=
EXTT19=
EXTT20=
EXTT21=
EXTT22=
EXTT23=
PLAYORDER=
